<svg xmlns="http://www.w3.org/2000/svg" viewBox="0 0 256 256" width="256" height="256">
  <defs>
    <mask id="rc">
      <rect x="0" y="0" width="256" height="256" rx="56" ry="56" fill="white"/>
    </mask>
  </defs>

  <g mask="url(#rc)">
    <rect x="0" y="0" width="256" height="256" fill="#f5f5f0"/>

    <path d="M0.0,55.0 L4.3,58.1 L8.5,61.2 L12.8,64.3 L17.1,67.2 L21.3,70.0 L25.6,72.6 L29.9,75.1 L34.1,77.3 L38.4,79.3 L42.7,81.0 L46.9,82.4 L51.2,83.5 L55.5,84.3 L59.7,84.8 L64.0,85.0 L68.3,84.8 L72.5,84.3 L76.8,83.5 L81.1,82.4 L85.3,81.0 L89.6,79.3 L93.9,77.3 L98.1,75.1 L102.4,72.6 L106.7,70.0 L110.9,67.2 L115.2,64.3 L119.5,61.2 L123.7,58.1 L128.0,55.0 L132.3,51.9 L136.5,48.8 L140.8,45.7 L145.1,42.8 L149.3,40.0 L153.6,37.4 L157.9,34.9 L162.1,32.7 L166.4,30.7 L170.7,29.0 L174.9,27.6 L179.2,26.5 L183.5,25.7 L187.7,25.2 L192.0,25.0 L196.3,25.2 L200.5,25.7 L204.8,26.5 L209.1,27.6 L213.3,29.0 L217.6,30.7 L221.9,32.7 L226.1,34.9 L230.4,37.4 L234.7,40.0 L238.9,42.8 L243.2,45.7 L247.5,48.8 L251.7,51.9 L256.0,55.0 L256,256 L0,256 Z" fill="#1e40af" opacity="0.85">
      <animateTransform attributeName="transform" type="translate"
        values="0,0; 5,-2; 0,0" dur="6s" repeatCount="indefinite"/>
    </path>
    <path d="M0.0,114.4 L4.3,117.1 L8.5,119.5 L12.8,121.8 L17.1,123.8 L21.3,125.6 L25.6,127.1 L29.9,128.3 L34.1,129.2 L38.4,129.8 L42.7,130.0 L46.9,129.9 L51.2,129.5 L55.5,128.7 L59.7,127.7 L64.0,126.3 L68.3,124.7 L72.5,122.8 L76.8,120.6 L81.1,118.2 L85.3,115.6 L89.6,112.8 L93.9,109.9 L98.1,106.9 L102.4,103.8 L106.7,100.7 L110.9,97.6 L115.2,94.5 L119.5,91.4 L123.7,88.4 L128.0,85.6 L132.3,82.9 L136.5,80.5 L140.8,78.2 L145.1,76.2 L149.3,74.4 L153.6,72.9 L157.9,71.7 L162.1,70.8 L166.4,70.2 L170.7,70.0 L174.9,70.1 L179.2,70.5 L183.5,71.3 L187.7,72.3 L192.0,73.7 L196.3,75.3 L200.5,77.2 L204.8,79.4 L209.1,81.8 L213.3,84.4 L217.6,87.2 L221.9,90.1 L226.1,93.1 L230.4,96.2 L234.7,99.3 L238.9,102.4 L243.2,105.5 L247.5,108.6 L251.7,111.6 L256.0,114.4 L256,256 L0,256 Z" fill="#dc2626" opacity="0.8">
      <animateTransform attributeName="transform" type="translate"
        values="0,0; -4,2; 0,0" dur="5s" repeatCount="indefinite"/>
    </path>
    <path d="M0.0,170.2 L4.3,171.8 L8.5,173.1 L12.8,174.0 L17.1,174.7 L21.3,175.0 L25.6,175.0 L29.9,174.6 L34.1,173.9 L38.4,173.0 L42.7,171.7 L46.9,170.1 L51.2,168.2 L55.5,166.1 L59.7,163.8 L64.0,161.2 L68.3,158.5 L72.5,155.6 L76.8,152.6 L81.1,149.5 L85.3,146.4 L89.6,143.3 L93.9,140.2 L98.1,137.1 L102.4,134.1 L106.7,131.2 L110.9,128.5 L115.2,126.0 L119.5,123.7 L123.7,121.6 L128.0,119.8 L132.3,118.2 L136.5,116.9 L140.8,116.0 L145.1,115.3 L149.3,115.0 L153.6,115.0 L157.9,115.4 L162.1,116.1 L166.4,117.0 L170.7,118.3 L174.9,119.9 L179.2,121.8 L183.5,123.9 L187.7,126.2 L192.0,128.8 L196.3,131.5 L200.5,134.4 L204.8,137.4 L209.1,140.5 L213.3,143.6 L217.6,146.7 L221.9,149.8 L226.1,152.9 L230.4,155.9 L234.7,158.8 L238.9,161.5 L243.2,164.0 L247.5,166.3 L251.7,168.4 L256.0,170.2 L256,256 L0,256 Z" fill="#eab308" opacity="0.85">
      <animateTransform attributeName="transform" type="translate"
        values="0,0; 3,-1; 0,0" dur="4.2s" repeatCount="indefinite"/>
    </path>
  </g>

  <rect x="3" y="3" width="250" height="250" rx="53" ry="53"
        fill="none" stroke="#1a1a1a" stroke-width="6"/>
</svg>